<?xml version="1.0" standalone="no"?><!DOCTYPE svg PUBLIC "-//W3C//DTD SVG 1.1//EN" "http://www.w3.org/Graphics/SVG/1.1/DTD/svg11.dtd"><svg class="icon" height="512" viewBox="0 0 1024 1024" version="1.1" xmlns="http://www.w3.org/2000/svg"><path d="M538.556195 396.587751l-28.414271 26.630517s-216.634515-17.75749-237.936642 8.884462c0 0-83.470493-24.858199-101.205115-99.478533-7.100709-30.186589-23.08588-14.201418-21.302127 16.00804s47.944079 97.660477 81.675306 113.634214c0 0-21.302127 17.75749-21.302127 55.044788v118.916867s-37.287298 21.302127-37.287299 39.059617v120.746357s0 14.201418 16.00804 14.201418h97.660477s16.00804-37.287298-63.917816-37.287299c0 0-7.100709-44.388007 21.302127-58.600859s71.029959-58.60086 78.130669-113.634214c0 0 97.660477 71.029959 271.667869 79.902987v129.687991h118.916866s10.656781-35.51498-74.517425-35.51498c0 0 102.062688-255.682698 74.997667-273.440188S538.556195 396.587751 538.556195 396.587751zM792.009201 288.716431c-19.095305-57.263045-25.304137-75.020535-91.474513-75.020535s-72.35634 8.438524-104.761186 69.749316-44.502351 83.85926-41.723812 89.18765c19.08387 36.84136 156.249902 95.888158 156.249902 95.888159s15.093295-70.138083 40.84337-74.574597c25.750075 3.990576 109.1977 8.873028 120.746357-51.454414s-16.396806-58.212093-79.880118-53.775579z m-129.207749 88.341511c-77.238792-15.093295-28.414271-117.190285 0-131.391703 51.271464 21.302127 72.836581 131.391703 0.034303 131.391703z" fill="#88898C" /></svg>